# xmcd
#
# Track frame offsets:
#	182
#	20402
#	39530
#	58365
#	93382
#
# Disc length: 1574 seconds
# Revision: 0
# Processed by: cddbd v1.5.2PL0 Copyright (c) Steve Scherf et al.
# Submitted via: dBpowerAMP V12.0
#
DISCID=3d062405
DTITLE=Robin S. - Show Me Love [Single]
DYEAR=1993
DGENRE=House
TTITLE0=Show Me Love [Jo Jo Venus Super Edit]
TTITLE1=Show Me Love [Power Radio Mix]
TTITLE2=Show Me Love [Remix Edit]
TTITLE3=Show Me Love [StoneBridge Club Mix]
TTITLE4=Show Me Love [Nick Nice Eagle Mix]
EXTD=
EXTT0=
EXTT1=
EXTT2=
EXTT3=
EXTT4=
PLAYORDER=
